<mxfile host="app.diagrams.net" modified="2021-07-27T13:24:27.616Z" agent="5.0 (X11; Linux x86_64) AppleWebKit/537.36 (KHTML, like Gecko) Chrome/92.0.4515.107 Safari/537.36" etag="ozj441cU4mUELiqALaR-" version="14.9.2" type="github">
  <diagram id="oozoZWTTvPiM0g9b1l-I" name="Page-1">
    <mxGraphModel dx="980" dy="610" grid="1" gridSize="10" guides="1" tooltips="1" connect="1" arrows="1" fold="1" page="1" pageScale="1" pageWidth="827" pageHeight="1169" math="0" shadow="0">
      <root>
        <mxCell id="0" />
        <mxCell id="1" parent="0" />
        <mxCell id="FVusDTMeRbniSDzzqUj0-4" value="serverA" style="strokeWidth=2;html=1;shape=mxgraph.flowchart.database;whiteSpace=wrap;" vertex="1" parent="1">
          <mxGeometry x="120" y="450" width="60" height="100" as="geometry" />
        </mxCell>
        <mxCell id="FVusDTMeRbniSDzzqUj0-6" value="serverB" style="strokeWidth=2;html=1;shape=mxgraph.flowchart.database;whiteSpace=wrap;" vertex="1" parent="1">
          <mxGeometry x="240" y="450" width="60" height="100" as="geometry" />
        </mxCell>
        <mxCell id="FVusDTMeRbniSDzzqUj0-7" value="serverC" style="strokeWidth=2;html=1;shape=mxgraph.flowchart.database;whiteSpace=wrap;" vertex="1" parent="1">
          <mxGeometry x="480" y="450" width="60" height="100" as="geometry" />
        </mxCell>
        <mxCell id="FVusDTMeRbniSDzzqUj0-8" value="serverD" style="strokeWidth=2;html=1;shape=mxgraph.flowchart.database;whiteSpace=wrap;" vertex="1" parent="1">
          <mxGeometry x="600" y="450" width="60" height="100" as="geometry" />
        </mxCell>
        <mxCell id="FVusDTMeRbniSDzzqUj0-9" value="server4" style="strokeWidth=2;html=1;shape=mxgraph.flowchart.database;whiteSpace=wrap;" vertex="1" parent="1">
          <mxGeometry x="110" y="610" width="60" height="100" as="geometry" />
        </mxCell>
        <mxCell id="FVusDTMeRbniSDzzqUj0-10" value="server5" style="strokeWidth=2;html=1;shape=mxgraph.flowchart.database;whiteSpace=wrap;" vertex="1" parent="1">
          <mxGeometry x="250" y="610" width="60" height="100" as="geometry" />
        </mxCell>
        <mxCell id="FVusDTMeRbniSDzzqUj0-11" value="server7" style="strokeWidth=2;html=1;shape=mxgraph.flowchart.database;whiteSpace=wrap;" vertex="1" parent="1">
          <mxGeometry x="610" y="610" width="60" height="100" as="geometry" />
        </mxCell>
        <mxCell id="FVusDTMeRbniSDzzqUj0-12" value="server6" style="strokeWidth=2;html=1;shape=mxgraph.flowchart.database;whiteSpace=wrap;" vertex="1" parent="1">
          <mxGeometry x="490" y="610" width="60" height="100" as="geometry" />
        </mxCell>
        <mxCell id="FVusDTMeRbniSDzzqUj0-13" value="" style="shape=flexArrow;endArrow=classic;startArrow=classic;html=1;entryX=0;entryY=0.5;entryDx=0;entryDy=0;entryPerimeter=0;width=18;startSize=5.8;exitX=1;exitY=0.5;exitDx=0;exitDy=0;exitPerimeter=0;startWidth=19;" edge="1" parent="1" source="FVusDTMeRbniSDzzqUj0-4" target="FVusDTMeRbniSDzzqUj0-6">
          <mxGeometry width="100" height="100" relative="1" as="geometry">
            <mxPoint x="160" y="530" as="sourcePoint" />
            <mxPoint x="260" y="430" as="targetPoint" />
          </mxGeometry>
        </mxCell>
        <mxCell id="FVusDTMeRbniSDzzqUj0-15" value="" style="shape=flexArrow;endArrow=classic;startArrow=classic;html=1;entryX=0;entryY=0.5;entryDx=0;entryDy=0;entryPerimeter=0;width=18;startSize=5.8;exitX=1;exitY=0.5;exitDx=0;exitDy=0;exitPerimeter=0;startWidth=18;" edge="1" parent="1">
          <mxGeometry width="100" height="100" relative="1" as="geometry">
            <mxPoint x="540" y="499.5" as="sourcePoint" />
            <mxPoint x="600" y="499.5" as="targetPoint" />
          </mxGeometry>
        </mxCell>
        <mxCell id="FVusDTMeRbniSDzzqUj0-16" value="10.249.82.31" style="text;html=1;align=center;verticalAlign=middle;resizable=0;points=[];autosize=1;strokeColor=none;" vertex="1" parent="1">
          <mxGeometry x="160" y="430" width="90" height="20" as="geometry" />
        </mxCell>
        <mxCell id="FVusDTMeRbniSDzzqUj0-18" value="10.249.90.101" style="text;html=1;align=center;verticalAlign=middle;resizable=0;points=[];autosize=1;strokeColor=none;" vertex="1" parent="1">
          <mxGeometry x="160" y="550" width="90" height="20" as="geometry" />
        </mxCell>
        <mxCell id="FVusDTMeRbniSDzzqUj0-21" value="" style="endArrow=classic;html=1;" edge="1" parent="1">
          <mxGeometry width="50" height="50" relative="1" as="geometry">
            <mxPoint x="150" y="610" as="sourcePoint" />
            <mxPoint x="200" y="570" as="targetPoint" />
          </mxGeometry>
        </mxCell>
        <mxCell id="FVusDTMeRbniSDzzqUj0-22" value="" style="endArrow=classic;html=1;entryX=0.587;entryY=1.13;entryDx=0;entryDy=0;entryPerimeter=0;" edge="1" parent="1" target="FVusDTMeRbniSDzzqUj0-18">
          <mxGeometry width="50" height="50" relative="1" as="geometry">
            <mxPoint x="250" y="610" as="sourcePoint" />
            <mxPoint x="210" y="580" as="targetPoint" />
          </mxGeometry>
        </mxCell>
        <mxCell id="FVusDTMeRbniSDzzqUj0-23" value="10.160.57.61" style="text;html=1;align=center;verticalAlign=middle;resizable=0;points=[];autosize=1;strokeColor=none;" vertex="1" parent="1">
          <mxGeometry x="515" y="430" width="90" height="20" as="geometry" />
        </mxCell>
        <mxCell id="FVusDTMeRbniSDzzqUj0-24" value="" style="endArrow=classic;html=1;exitX=-0.007;exitY=0.69;exitDx=0;exitDy=0;exitPerimeter=0;entryX=1;entryY=0.85;entryDx=0;entryDy=0;entryPerimeter=0;" edge="1" parent="1" source="FVusDTMeRbniSDzzqUj0-23" target="FVusDTMeRbniSDzzqUj0-9">
          <mxGeometry width="50" height="50" relative="1" as="geometry">
            <mxPoint x="390" y="500" as="sourcePoint" />
            <mxPoint x="340" y="550" as="targetPoint" />
          </mxGeometry>
        </mxCell>
        <mxCell id="FVusDTMeRbniSDzzqUj0-25" value="" style="endArrow=classic;html=1;exitX=0.864;exitY=1.13;exitDx=0;exitDy=0;exitPerimeter=0;entryX=1;entryY=0.85;entryDx=0;entryDy=0;entryPerimeter=0;" edge="1" parent="1" source="FVusDTMeRbniSDzzqUj0-23" target="FVusDTMeRbniSDzzqUj0-10">
          <mxGeometry width="50" height="50" relative="1" as="geometry">
            <mxPoint x="524.3699999999999" y="453.79999999999995" as="sourcePoint" />
            <mxPoint x="180" y="705" as="targetPoint" />
          </mxGeometry>
        </mxCell>
        <mxCell id="FVusDTMeRbniSDzzqUj0-26" value="10.160.57.x" style="text;html=1;align=center;verticalAlign=middle;resizable=0;points=[];autosize=1;strokeColor=none;" vertex="1" parent="1">
          <mxGeometry x="525" y="540" width="80" height="20" as="geometry" />
        </mxCell>
        <mxCell id="FVusDTMeRbniSDzzqUj0-28" value="" style="endArrow=classic;html=1;entryX=0.128;entryY=0.95;entryDx=0;entryDy=0;entryPerimeter=0;exitX=0.327;exitY=-0.006;exitDx=0;exitDy=0;exitPerimeter=0;" edge="1" parent="1" source="FVusDTMeRbniSDzzqUj0-12" target="FVusDTMeRbniSDzzqUj0-26">
          <mxGeometry width="50" height="50" relative="1" as="geometry">
            <mxPoint x="340" y="550" as="sourcePoint" />
            <mxPoint x="390" y="500" as="targetPoint" />
          </mxGeometry>
        </mxCell>
        <mxCell id="FVusDTMeRbniSDzzqUj0-29" value="" style="endArrow=classic;html=1;entryX=0.638;entryY=1.07;entryDx=0;entryDy=0;entryPerimeter=0;exitX=0.087;exitY=0.074;exitDx=0;exitDy=0;exitPerimeter=0;" edge="1" parent="1" source="FVusDTMeRbniSDzzqUj0-11" target="FVusDTMeRbniSDzzqUj0-26">
          <mxGeometry width="50" height="50" relative="1" as="geometry">
            <mxPoint x="519.6199999999999" y="619.4000000000001" as="sourcePoint" />
            <mxPoint x="545.24" y="569" as="targetPoint" />
          </mxGeometry>
        </mxCell>
        <mxCell id="FVusDTMeRbniSDzzqUj0-30" value="" style="endArrow=classic;html=1;exitX=0.258;exitY=1.13;exitDx=0;exitDy=0;exitPerimeter=0;entryX=0;entryY=0.85;entryDx=0;entryDy=0;entryPerimeter=0;" edge="1" parent="1" source="FVusDTMeRbniSDzzqUj0-16" target="FVusDTMeRbniSDzzqUj0-12">
          <mxGeometry width="50" height="50" relative="1" as="geometry">
            <mxPoint x="190" y="470" as="sourcePoint" />
            <mxPoint x="340" y="550" as="targetPoint" />
          </mxGeometry>
        </mxCell>
        <mxCell id="FVusDTMeRbniSDzzqUj0-32" value="" style="endArrow=classic;html=1;exitX=0.809;exitY=1.13;exitDx=0;exitDy=0;exitPerimeter=0;entryX=0;entryY=0.85;entryDx=0;entryDy=0;entryPerimeter=0;" edge="1" parent="1" source="FVusDTMeRbniSDzzqUj0-16" target="FVusDTMeRbniSDzzqUj0-11">
          <mxGeometry width="50" height="50" relative="1" as="geometry">
            <mxPoint x="240" y="452" as="sourcePoint" />
            <mxPoint x="340" y="550" as="targetPoint" />
          </mxGeometry>
        </mxCell>
      </root>
    </mxGraphModel>
  </diagram>
</mxfile>
